<svg width="35" height="35" viewBox="0 0 35 35" fill="none" xmlns="http://www.w3.org/2000/svg">
<g clip-path="url(#clip0_208_40)">
<path d="M24.0625 17.5C24.0625 14.926 22.575 12.7021 20.4167 11.6302V14.8531L23.9969 18.4333C24.0406 18.1271 24.0625 17.8135 24.0625 17.5ZM27.7083 17.5C27.7083 18.8708 27.4094 20.1615 26.9208 21.35L29.1302 23.5594C30.0781 21.7438 30.625 19.6875 30.625 17.5C30.625 11.2583 26.2573 6.0375 20.4167 4.71042V7.72188C24.6313 8.97604 27.7083 12.8771 27.7083 17.5ZM6.23438 4.375L4.375 6.23438L11.2656 13.125H4.375V21.875H10.2083L17.5 29.1667V19.3594L23.7052 25.5646C22.7281 26.3156 21.6271 26.9208 20.4167 27.2854V30.2969C22.4219 29.8375 24.2521 28.9188 25.7906 27.6573L28.7656 30.625L30.625 28.7656L17.5 15.6406L6.23438 4.375ZM17.5 5.83333L14.4521 8.88125L17.5 11.9292V5.83333Z" fill="white"/>
</g>
<defs>
<clipPath id="clip0_208_40">
<rect width="35" height="35" fill="white"/>
</clipPath>
</defs>
</svg>
