<svg width="51" height="51" viewBox="0 0 51 51" fill="none" xmlns="http://www.w3.org/2000/svg">
<g clip-path="url(#clip0_89_162)">
<path d="M25.4178 30.5927C22.2673 37.284 21.2147 43.3495 22.179 50.0481C21.936 50.0187 21.6858 49.9892 21.4429 49.9524C20.508 43.1876 21.5827 37.0558 24.7701 30.2909C27.6851 24.1003 26.4852 18.2187 21.8477 16.0031C19.3449 14.8032 16.3858 14.9357 14.1259 16.3343C12.1237 17.5783 10.9533 19.6247 10.9165 21.9508C10.8576 25.7418 13.5738 27.8986 16.2901 28.0752C18.6015 28.2225 21.222 27.0594 21.8698 24.1297C22.1716 22.7532 21.9508 21.3398 21.2735 20.3387C20.7067 19.5069 19.8749 18.9917 18.7929 18.8076C17.5636 18.6015 16.4299 18.8812 15.5981 19.5953C14.8841 20.2136 14.4793 21.119 14.5013 22.0686C14.5308 23.3789 15.4509 24.034 16.349 24.1003C17.1808 24.1665 18.0936 23.7469 18.2776 22.6869C18.3144 22.4955 18.4984 22.363 18.6898 22.3925C18.8812 22.4219 19.0137 22.6133 18.9769 22.8047C18.7192 24.299 17.409 24.8953 16.2901 24.8069C15.105 24.7186 13.8168 23.8279 13.78 22.076C13.7579 20.9129 14.2511 19.8087 15.127 19.0505C16.1134 18.1967 17.4605 17.858 18.9033 18.101C20.1694 18.3144 21.1852 18.9475 21.8551 19.9339C22.6353 21.0896 22.9003 22.7164 22.5544 24.2769C21.9213 27.1257 19.3229 28.988 16.2312 28.7819C13.1837 28.5832 10.1289 26.1687 10.1951 21.9361C10.2319 19.3597 11.5275 17.0999 13.7432 15.7233C16.2091 14.1922 19.4333 14.0524 22.1495 15.3553C27.1624 17.755 28.5021 24.0193 25.4105 30.5927H25.4178Z" fill="black"/>
<path d="M40.2284 36.3638C38.7488 37.9538 36.4963 38.2997 34.7444 37.2103C33.8021 36.6288 33.1323 35.6497 32.9409 34.5897C32.7716 33.6402 33.0071 32.6979 33.6034 31.925C34.4352 30.8503 35.8191 30.6074 36.8938 31.3509C37.3796 31.6895 37.7109 32.2268 37.8213 32.8304C37.9243 33.434 37.7918 34.0303 37.4459 34.5088C37.3281 34.6707 37.1073 34.7002 36.9527 34.5897C36.7907 34.472 36.7613 34.2511 36.8717 34.0965C37.1073 33.7727 37.1956 33.3678 37.122 32.9556C37.0484 32.536 36.8202 32.1679 36.4963 31.9397C35.7307 31.4097 34.7812 31.5864 34.1775 32.3667C33.5739 33.147 33.5592 33.942 33.6549 34.472C33.8095 35.3332 34.3616 36.1356 35.1345 36.614C36.5846 37.5195 38.4691 37.2177 39.7204 35.8853C41.5092 33.9714 41.0086 31.3582 39.5879 29.7756C38.2703 28.3034 35.5835 27.3023 32.801 28.5905C28.0752 30.7693 26.1466 36.246 25.3663 40.4639C24.748 43.8132 24.8731 47.2508 25.2706 50.2247C25.0277 50.2247 24.7922 50.2247 24.5492 50.2247C24.1591 47.2067 24.034 43.7322 24.667 40.3388C25.4841 35.9589 27.501 30.2541 32.5066 27.95C35.6203 26.5146 38.6384 27.6482 40.1253 29.3045C42.0318 31.4392 42.0834 34.4131 40.2431 36.3785L40.2284 36.3638Z" fill="black"/>
<path d="M21.4061 31.0638C19.0652 37.0484 18.2408 43.7396 19.0726 49.4886C18.8223 49.4298 18.5794 49.3635 18.3291 49.2973C17.5783 43.7396 18.3291 37.3649 20.4491 31.5791C16.0619 33.2059 11.5864 32.0429 8.86276 28.5095C6.46304 25.3958 5.31471 19.7057 9.96692 13.9125C13.5444 9.45903 14.5529 5.68279 14.5676 2.32613C14.7958 2.21572 15.0314 2.11266 15.2669 2.01697C15.3111 5.56501 14.3247 9.6357 10.5264 14.3615C6.13179 19.8308 7.19179 25.1676 9.43692 28.0752C12.109 31.5423 16.6287 32.5434 20.9349 30.6148C21.0674 30.5559 21.222 30.5854 21.3251 30.6811C21.4281 30.7767 21.4649 30.9313 21.4061 31.0712V31.0638Z" fill="black"/>
<path d="M16.6361 35.5173C15.4804 39.3303 15.3111 44.2107 15.6718 48.3771C15.4215 48.2814 15.1786 48.171 14.9283 48.0606C14.6118 44.0488 14.7884 39.4554 15.8263 35.7454C9.53262 35.3406 6.49248 31.7778 5.21902 29.6578C2.60583 25.2853 1.68569 17.7549 7.68498 10.8944C9.53998 8.78177 10.6368 6.58817 10.968 4.33567C11.2257 4.15901 11.4833 3.9897 11.7483 3.82776C11.5201 6.42622 10.335 8.95108 8.22234 11.3655C2.47333 17.9316 3.34194 25.1308 5.82999 29.2898C7.05929 31.3362 10.0405 34.8106 16.3048 35.0535C16.4152 35.0535 16.5183 35.1124 16.5845 35.2007C16.6508 35.2891 16.6655 35.4068 16.6361 35.5099V35.5173Z" fill="black"/>
<path d="M12.9702 38.5132C12.455 41.2663 12.4255 44.2475 12.5875 46.8754C12.3372 46.7282 12.0869 46.581 11.8366 46.4264C11.7115 43.931 11.7704 41.2516 12.212 38.7194C8.81859 37.9464 5.90359 36.2313 3.75416 33.758C2.53222 32.3446 0.493193 29.3708 0 24.7774C0.0147222 23.4009 0.147222 22.0244 0.390138 20.6626C0.522637 21.7668 0.581526 22.7605 0.625693 23.5923V23.7395C0.905414 28.6935 3.04749 31.8515 4.29888 33.2942C6.41151 35.7308 9.31914 37.3944 12.6979 38.0937C12.8893 38.1378 13.0144 38.3145 12.9776 38.5059L12.9702 38.5132Z" fill="black"/>
<path d="M9.54733 44.8144C9.30441 44.623 9.06886 44.4242 8.82594 44.2255C8.82594 43.1949 8.89219 42.157 9.00997 41.1117C7.09609 40.4934 5.2779 39.4776 3.65846 38.1747C3.27568 37.5563 2.92971 36.9233 2.60582 36.2755C4.57123 38.2483 6.95622 39.7499 9.50316 40.5155C9.67247 40.567 9.77552 40.729 9.75344 40.8983C9.5915 42.2159 9.51788 43.5262 9.54733 44.8144Z" fill="black"/>
<path d="M43.7543 28.8187C45.9627 33.3605 44.0856 37.814 41.0086 39.9192C39.6395 40.8541 37.0999 41.6859 34.4426 40.9204C33.0366 40.5155 31.1374 39.507 29.8419 37.0043C27.8617 40.7658 27.6188 45.5578 28.3623 49.9966C28.1267 50.026 27.8912 50.0555 27.6556 50.0775C26.8533 45.2634 27.1919 40.0297 29.5548 36.0473C29.621 35.9295 29.7462 35.8633 29.886 35.878C30.0185 35.8854 30.1363 35.9663 30.1878 36.0915C31.1227 38.2336 32.6612 39.669 34.6339 40.2358C36.9012 40.8835 39.2641 40.2505 40.6038 39.3304C43.5041 37.3429 45.2339 33.0881 42.9446 28.7819C42.8931 28.6936 42.8857 28.5832 42.9225 28.4875C42.9593 28.3918 43.0403 28.3182 43.136 28.2814C46.927 26.9269 49.1058 24.5198 49.8346 20.8025C49.945 21.4135 50.026 22.0244 50.0849 22.6428C49.069 25.5578 46.9858 27.5673 43.7543 28.8114V28.8187Z" fill="black"/>
<path d="M49.9818 28.5169C49.2751 29.1868 48.4213 29.7904 47.3907 30.2615C48.3918 34.7002 46.9049 39.0359 43.3642 41.9141C40.7289 44.0562 35.2891 45.6241 31.108 42.7091C30.7914 44.7923 30.9019 47.1773 31.3435 49.4298C31.108 49.4886 30.8724 49.5475 30.6369 49.5991C30.1289 47.0595 30.0553 44.3506 30.5044 42.0098C30.5264 41.8846 30.6148 41.7889 30.7326 41.7448C30.8503 41.7006 30.9828 41.7227 31.0785 41.8037C35.0094 44.9469 40.3682 43.4452 42.9152 41.3694C44.5493 40.0444 48.1783 36.2976 46.6325 30.1511C46.5883 29.9818 46.6767 29.8051 46.8386 29.7388C48.2446 29.1426 49.3119 28.2961 50.1217 27.3612C50.0849 27.7513 50.0407 28.1415 49.9892 28.5243L49.9818 28.5169Z" fill="black"/>
<path d="M39.0506 45.9848C38.5574 46.316 38.0568 46.6252 37.5489 46.9196C36.1724 47.0227 34.8327 46.9196 33.6623 46.581C33.6991 47.2656 33.8242 47.9428 34.0156 48.5832C33.7948 48.6716 33.5739 48.7525 33.3457 48.8261C33.0807 47.9502 32.9409 47.0153 32.9409 46.0878C32.9409 45.97 32.9998 45.867 33.0955 45.7934C33.1912 45.7271 33.3163 45.7124 33.4194 45.7492C35.0094 46.3234 37.0631 46.3675 39.0653 45.9848H39.0506Z" fill="black"/>
<path d="M47.7661 19.2125C47.6189 21.4797 46.7135 23.2685 45.094 24.5346C43.2979 25.9332 40.7731 26.1982 38.1673 25.2707C34.575 23.9899 31.5496 25.013 30.048 26.2718C29.9817 26.3233 29.9008 26.3528 29.8198 26.3528C29.7609 26.3528 29.702 26.338 29.6505 26.3086C29.5253 26.2423 29.4444 26.1025 29.4591 25.9626C29.7462 22.7605 31.2773 19.2346 33.3605 16.9968C36.143 13.9935 39.8971 13.2206 42.4882 15.1124C43.4746 15.8338 44.4904 17.2545 44.3653 19.08C44.2254 21.2957 42.6281 22.8489 40.4786 22.8489C39.507 22.8489 38.528 22.4367 37.8581 21.7521C37.2545 21.1337 36.9453 20.3535 36.96 19.4996C36.9968 18.0568 38.0789 17.2029 39.1095 17.2029H39.1242C39.6689 17.2029 40.1916 17.4311 40.5596 17.8139C40.832 18.0936 41.1411 18.5942 41.1191 19.4039C41.1117 19.6026 40.9497 19.7499 40.751 19.7499C40.5522 19.7499 40.3977 19.5806 40.405 19.3818C40.4198 18.9401 40.302 18.5795 40.0443 18.3145C39.8088 18.0715 39.4628 17.9243 39.1168 17.9243C39.1168 17.9243 39.1168 17.9243 39.1095 17.9243C38.4175 17.9243 37.6961 18.5206 37.6741 19.5217C37.652 20.3535 38.0421 20.9276 38.366 21.2589C38.9034 21.811 39.6984 22.1422 40.4786 22.1422C42.26 22.1422 43.5409 20.8982 43.6586 19.0432C43.7838 17.0557 42.3557 15.9074 42.0686 15.6939C39.7793 14.0229 36.4153 14.759 33.8831 17.4826C32.1017 19.4039 30.7031 22.4293 30.2688 25.2339C32.0576 24.1076 35.0093 23.3936 38.4028 24.6082C40.7804 25.4547 43.055 25.2265 44.6524 23.9825C46.1099 22.8489 46.9196 21.2294 47.0521 19.1757C47.2435 16.246 45.359 12.7863 41.3767 11.8441C33.758 10.0406 29.4664 17.7918 29.4296 17.8728C29.3708 17.9906 29.2456 18.0642 29.1131 18.0642C28.9806 18.0642 28.8628 17.9832 28.7966 17.8654C26.3012 12.9409 20.3166 10.3792 15.7233 12.2784C15.5834 12.3372 15.4141 12.2931 15.3111 12.1753C15.2154 12.0575 15.2007 11.8809 15.289 11.7557C17.3722 8.56101 18.0494 4.65963 18.0641 1.01589C18.2997 0.949638 18.5352 0.883388 18.7781 0.817139C18.7781 4.32102 18.204 8.07517 16.4005 11.292C20.9865 9.99642 26.4999 12.4329 29.1278 16.9968C30.313 15.1786 34.6339 9.52531 41.5386 11.1595C45.9038 12.19 47.9722 15.9957 47.7588 19.2272L47.7661 19.2125Z" fill="black"/>
<path d="M44.6597 9.35595C42.8342 8.78179 41.0013 8.52415 39.5291 8.50207C39.4628 8.50207 39.3966 8.50207 39.3377 8.50207C35.6792 8.50207 32.0428 10.0258 29.8051 12.5139C29.7388 12.5875 29.6431 12.6316 29.5401 12.6316C29.437 12.6316 29.3413 12.5875 29.2751 12.5139C27.2213 10.173 23.8867 8.61984 20.7877 8.55359C20.6773 8.55359 20.5742 8.49471 20.508 8.40637C20.4417 8.31804 20.4197 8.20762 20.4491 8.09721C21.1705 5.51346 21.4649 2.73833 21.4723 0.265006C21.7152 0.2282 21.9581 0.198756 22.201 0.169312C22.201 2.74569 21.8698 5.45458 21.2588 7.85429C24.2842 8.04568 27.4642 9.53998 29.5548 11.7483C31.9766 9.24554 35.7749 7.72915 39.5511 7.78804C40.8025 7.81012 42.2968 7.98679 43.8427 8.38429C44.1297 8.70082 44.4095 9.0247 44.6745 9.35595H44.6597Z" fill="black"/>
<path d="M40.935 5.6313C39.7352 5.52088 38.4543 5.47671 37.0999 5.60185C34.472 5.84477 32.0281 6.74282 29.8345 8.28865C29.7682 8.33282 29.702 8.3549 29.6284 8.3549C29.5401 8.3549 29.4517 8.31809 29.3855 8.2592C28.1046 7.0299 26.0067 5.99935 24.402 5.8006C24.3063 5.79324 24.2106 5.73435 24.1591 5.65338C24.1002 5.57241 24.0781 5.46935 24.1002 5.37366C24.4609 3.53338 24.586 1.55325 24.6081 0.00742199C24.8437 0.00742199 25.0866 6.08959e-05 25.3222 0.00742199C25.2927 1.487 25.1897 3.36408 24.8658 5.15282C26.4705 5.44727 28.3549 6.38949 29.6578 7.55254C31.8956 6.03616 34.3689 5.1381 37.0336 4.89519C38.0421 4.79949 38.9991 4.79949 39.9192 4.85102C40.2652 5.1013 40.6038 5.3663 40.935 5.63866V5.6313Z" fill="black"/>
<path d="M36.2975 2.62786C32.6023 3.03272 30.2541 4.26938 30.2173 4.29146C30.1658 4.32091 30.1069 4.33563 30.048 4.33563C29.967 4.33563 29.8934 4.30619 29.8271 4.25466C29.2235 3.77619 28.5537 3.40077 27.8249 3.15049C27.6703 3.09897 27.5599 2.94438 27.5746 2.77508C27.5746 2.76036 27.6703 1.67828 27.6924 0.132446C27.928 0.15453 28.1709 0.183974 28.4065 0.213418C28.3844 1.2955 28.3328 2.14939 28.3034 2.56161C28.9438 2.81188 29.5401 3.14313 30.0848 3.55535C30.681 3.26091 32.4624 2.47327 35.0682 2.05369C35.4805 2.23036 35.8853 2.42175 36.2975 2.62786Z" fill="black"/>
</g>
<defs>
<clipPath id="clip0_89_162">
<rect width="50.1143" height="50.21" fill="white"/>
</clipPath>
</defs>
</svg>
